<?xml version="1.0" encoding="utf-8"?>
<!-- Generator: Adobe Illustrator 22.0.1, SVG Export Plug-In . SVG Version: 6.00 Build 0)  -->
<svg version="1.1" id="레이어_1" xmlns="http://www.w3.org/2000/svg" xmlns:xlink="http://www.w3.org/1999/xlink" x="0px"
	 y="0px" viewBox="0 0 25.5 27.8" enable-background="new 0 0 25.5 27.8" xml:space="preserve">
<g>
	<defs>
		<rect id="SVGID_1_" y="0" width="25.5" height="27.8"/>
	</defs>
	<clipPath id="SVGID_2_">
		<use xlink:href="#SVGID_1_"  overflow="visible"/>
	</clipPath>
	<path clip-path="url(#SVGID_2_)" fill="#FFFFFF" d="M5.1,27.8c-2.8,0-5.1-2.3-5.1-5.1v0V5c0-1.8,1-3.5,2.5-4.4
		c1.5-0.9,3.5-0.9,5.1,0l15.3,8.9c1.6,0.9,2.5,2.6,2.5,4.4c0,1.8-1,3.5-2.5,4.4L7.9,27C7,27.5,6.1,27.8,5.1,27.8 M4,22.7
		c0,0,0,0.1,0,0.1c0,0.5,0.5,1,1.1,1c0.3,0,0.5-0.1,0.6-0.2c0,0,0.1-0.1,0.1-0.1l15.1-8.7c0.3-0.2,0.5-0.5,0.5-0.9
		c0-0.4-0.2-0.7-0.5-0.9L5.6,4.1c-0.3-0.2-0.7-0.2-1.1,0C4.2,4.3,4,4.7,4,5V22.7z"/>
</g>
</svg>
